HIERARCHY
ROOT reference
{
  OFFSET 0 0 0
  CHANNELS 6 Xposition Yposition Zposition Zrotation Xrotation Yrotation
  JOINT Hips
  {
    OFFSET 355.919 86.4685 225.794
    CHANNELS 3 Zrotation Xrotation Yrotation
    JOINT RightUpLeg
    {
      OFFSET -9.27022 -1.53975 0.0125073
      CHANNELS 3 Zrotation Xrotation Yrotation
      JOINT RightLeg
      {
        OFFSET 0.013591 -41.8786 0.0152335
        CHANNELS 3 Zrotation Xrotation Yrotation
        JOINT RightFoot
        {
          OFFSET -0.635566 -43.1371 -0.638083
          CHANNELS 3 Zrotation Xrotation Yrotation
          End Site
          {
            OFFSET 0 -7.69 17.5
          }
        }
      }
    }
    JOINT LeftUpLeg
    {
      OFFSET 9.3307 -1.62449 -0.0651281
      CHANNELS 3 Zrotation Xrotation Yrotation
      JOINT LeftLeg
      {
        OFFSET 0.136006 -41.8606 -0.0682192
        CHANNELS 3 Zrotation Xrotation Yrotation
        JOINT LeftFoot
        {
          OFFSET 0.555276 -40.3296 1.11688
          CHANNELS 3 Zrotation Xrotation Yrotation
          End Site
          {
            OFFSET 0 -7.69 17.5
          }
        }
      }
    }
    JOINT Spine
    {
      OFFSET 0.0523142 14.2998 0.0636653
      CHANNELS 3 Zrotation Xrotation Yrotation
      JOINT Spine1
      {
        OFFSET 0.0411785 9.71676 0.0113233
        CHANNELS 3 Zrotation Xrotation Yrotation
        JOINT Spine2
        {
          OFFSET 0.0674534 10.1151 -0.00111457
          CHANNELS 3 Zrotation Xrotation Yrotation
          JOINT Spine3
          {
            OFFSET 0.048863 9.72171 0.0174249
            CHANNELS 3 Zrotation Xrotation Yrotation
            JOINT Neck
            {
              OFFSET 0.180558 10.3768 0.0617075
              CHANNELS 3 Zrotation Xrotation Yrotation
              JOINT Head
              {
                OFFSET 0.135918 9.47305 0.0380206
                CHANNELS 3 Zrotation Xrotation Yrotation
                End Site
                {
                  OFFSET 0 15.95 0
                }
              }
            }
            JOINT RightShoulder
            {
              OFFSET -3.15694 6.89408 0.00348883
              CHANNELS 3 Zrotation Xrotation Yrotation
              JOINT RightArm
              {
                OFFSET -12.7409 -0.0031918 0.045926
                CHANNELS 3 Zrotation Xrotation Yrotation
                JOINT RightForeArm
                {
                  OFFSET -26.5086 -0.0806184 0.00400063
                  CHANNELS 3 Zrotation Xrotation Yrotation
                  JOINT RightHand
                  {
                    OFFSET -26.0338 -0.025514 0.155859
                    CHANNELS 3 Zrotation Xrotation Yrotation
                    JOINT RightHandThumb1
                    {
                      OFFSET -2.48905 0.190105 3.12053
                      CHANNELS 3 Zrotation Xrotation Yrotation
                      JOINT RightHandThumb2
                      {
                        OFFSET -3.68274 0 0
                        CHANNELS 3 Zrotation Xrotation Yrotation
                        JOINT RightHandThumb3
                        {
                          OFFSET -2.55832 0 0
                          CHANNELS 3 Zrotation Xrotation Yrotation
                          End Site
                          {
                            OFFSET -2.194 0 0
                          }
                        }
                      }
                    }
                    JOINT RightInHandIndex
                    {
                      OFFSET -3.22368 0.508421 1.97842
                      CHANNELS 3 Zrotation Xrotation Yrotation
                      JOINT RightHandIndex1
                      {
                        OFFSET -5.21684 -0.091368 0.999158
                        CHANNELS 3 Zrotation Xrotation Yrotation
                        JOINT RightHandIndex2
                        {
                          OFFSET -3.61937 0 0
                          CHANNELS 3 Zrotation Xrotation Yrotation
                          JOINT RightHandIndex3
                          {
                            OFFSET -2.0521 0 0
                            CHANNELS 3 Zrotation Xrotation Yrotation
                            End Site
                            {
                              OFFSET -1.805 0 0
                            }
                          }
                        }
                      }
                    }
                    JOINT RightInHandMiddle
                    {
                      OFFSET -3.38211 0.517263 0.756737
                      CHANNELS 3 Zrotation Xrotation Yrotation
                      JOINT RightHandMiddle1
                      {
                        OFFSET -5.17411 -0.084 0.313895
                        CHANNELS 3 Zrotation Xrotation Yrotation
                        JOINT RightHandMiddle2
                        {
                          OFFSET -3.94947 0 0
                          CHANNELS 3 Zrotation Xrotation Yrotation
                          JOINT RightHandMiddle3
                          {
                            OFFSET -2.47579 0 0
                            CHANNELS 3 Zrotation Xrotation Yrotation
                            End Site
                            {
                              OFFSET -1.975 0 0
                            }
                          }
                        }
                      }
                    }
                    JOINT RightInHandRing
                    {
                      OFFSET -3.36516 0.537895 -0.128947
                      CHANNELS 3 Zrotation Xrotation Yrotation
                      JOINT RightHandRing1
                      {
                        OFFSET -4.63474 -0.022105 -0.478947
                        CHANNELS 3 Zrotation Xrotation Yrotation
                        JOINT RightHandRing2
                        {
                          OFFSET -3.44238 0 0
                          CHANNELS 3 Zrotation Xrotation Yrotation
                          JOINT RightHandRing3
                          {
                            OFFSET -2.3881 0 0
                            CHANNELS 3 Zrotation Xrotation Yrotation
                            End Site
                            {
                              OFFSET -1.857 0 0
                            }
                          }
                        }
                      }
                    }
                    JOINT RightInHandPinky
                    {
                      OFFSET -3.16105 0.469368 -1.20179
                      CHANNELS 3 Zrotation Xrotation Yrotation
                      JOINT RightHandPinky1
                      {
                        OFFSET -4.14105 -0.022105 -1.09053
                        CHANNELS 3 Zrotation Xrotation Yrotation
                        JOINT RightHandPinky2
                        {
                          OFFSET -2.75653 0 0
                          CHANNELS 3 Zrotation Xrotation Yrotation
                          JOINT RightHandPinky3
                          {
                            OFFSET -1.74189 0 0
                            CHANNELS 3 Zrotation Xrotation Yrotation
                            End Site
                            {
                              OFFSET -1.645 0 0
                            }
                          }
                        }
                      }
                    }
                  }
                }
              }
            }
            JOINT LeftShoulder
            {
              OFFSET 3.22505 6.94333 0.022328
              CHANNELS 3 Zrotation Xrotation Yrotation
              JOINT LeftArm
              {
                OFFSET 12.8536 -0.0213048 -0.00476292
                CHANNELS 3 Zrotation Xrotation Yrotation
                JOINT LeftForeArm
                {
                  OFFSET 26.4992 -0.0497473 -0.102272
                  CHANNELS 3 Zrotation Xrotation Yrotation
                  JOINT LeftHand
                  {
                    OFFSET 25.9818 -0.0182282 -0.0189166
                    CHANNELS 3 Zrotation Xrotation Yrotation
                    JOINT LeftHandThumb1
                    {
                      OFFSET 2.48905 0.190105 3.12053
                      CHANNELS 3 Zrotation Xrotation Yrotation
                      JOINT LeftHandThumb2
                      {
                        OFFSET 3.68274 0 0
                        CHANNELS 3 Zrotation Xrotation Yrotation
                        JOINT LeftHandThumb3
                        {
                          OFFSET 2.55832 0 0
                          CHANNELS 3 Zrotation Xrotation Yrotation
                          End Site
                          {
                            OFFSET 2.194 0 0
                          }
                        }
                      }
                    }
                    JOINT LeftInHandIndex
                    {
                      OFFSET 3.22368 0.508421 1.97842
                      CHANNELS 3 Zrotation Xrotation Yrotation
                      JOINT LeftHandIndex1
                      {
                        OFFSET 5.21684 -0.091368 0.999158
                        CHANNELS 3 Zrotation Xrotation Yrotation
                        JOINT LeftHandIndex2
                        {
                          OFFSET 3.61937 0 0
                          CHANNELS 3 Zrotation Xrotation Yrotation
                          JOINT LeftHandIndex3
                          {
                            OFFSET 2.0521 0 0
                            CHANNELS 3 Zrotation Xrotation Yrotation
                            End Site
                            {
                              OFFSET 1.805 0 0
                            }
                          }
                        }
                      }
                    }
                    JOINT LeftInHandMiddle
                    {
                      OFFSET 3.38211 0.517263 0.756737
                      CHANNELS 3 Zrotation Xrotation Yrotation
                      JOINT LeftHandMiddle1
                      {
                        OFFSET 5.17411 -0.084 0.313895
                        CHANNELS 3 Zrotation Xrotation Yrotation
                        JOINT LeftHandMiddle2
                        {
                          OFFSET 3.94947 0 0
                          CHANNELS 3 Zrotation Xrotation Yrotation
                          JOINT LeftHandMiddle3
                          {
                            OFFSET 2.47579 0 0
                            CHANNELS 3 Zrotation Xrotation Yrotation
                            End Site
                            {
                              OFFSET 1.975 0 0
                            }
                          }
                        }
                      }
                    }
                    JOINT LeftInHandRing
                    {
                      OFFSET 3.36516 0.537895 -0.128947
                      CHANNELS 3 Zrotation Xrotation Yrotation
                      JOINT LeftHandRing1
                      {
                        OFFSET 4.63474 -0.022105 -0.478947
                        CHANNELS 3 Zrotation Xrotation Yrotation
                        JOINT LeftHandRing2
                        {
                          OFFSET 3.44238 0 0
                          CHANNELS 3 Zrotation Xrotation Yrotation
                          JOINT LeftHandRing3
                          {
                            OFFSET 2.3881 0 0
                            CHANNELS 3 Zrotation Xrotation Yrotation
                            End Site
                            {
                              OFFSET 1.857 0 0
                            }
                          }
                        }
                      }
                    }
                    JOINT LeftInHandPinky
                    {
                      OFFSET 3.16105 0.469368 -1.20179
                      CHANNELS 3 Zrotation Xrotation Yrotation
                      JOINT LeftHandPinky1
                      {
                        OFFSET 4.14105 -0.022105 -1.09053
                        CHANNELS 3 Zrotation Xrotation Yrotation
                        JOINT LeftHandPinky2
                        {
                          OFFSET 2.75653 0 0
                          CHANNELS 3 Zrotation Xrotation Yrotation
                          JOINT LeftHandPinky3
                          {
                            OFFSET 1.74189 0 0
                            CHANNELS 3 Zrotation Xrotation Yrotation
                            End Site
                            {
                              OFFSET 1.645 0 0
                            }
                          }
                        }
                      }
                    }
                  }
                }
              }
            }
          }
        }
      }
    }
  }
}
MOTION
Frames: 2
Frame Time: 0.00833333
4.500000000000000000e+02 0.000000000000000000e+00 0.000000000000000000e+00 0.000000000000000000e+00 0.000000000000000000e+00 0.000000000000000000e+00 2.862463176372570875e-02 1.161476742963785114e-01 7.159266578371049905e-02 2.677183377565633959e-01 -1.521045420256575686e-01 6.550854724518989647e-01 3.383564371416543093e-01 1.077615221903309023e-01 -5.178881045137143646e-01 -4.422890992838303115e-01 8.276341756589136733e-02 -1.429221828870614330e-01 1.171203894699631709e-01 1.627784783162706528e-01 -4.113565418952879194e-01 -4.360292046769698726e-01 -2.027363053200795795e-01 8.417653192257923411e-01 3.998806653696315161e-01 8.080941417058158660e-02 -6.163635306373066447e-02 4.935521632831885164e-02 8.488129361105321846e-02 4.236774198193191121e-01 1.246500986133415936e-02 2.352151810318165587e-02 1.018660410517981812e-01 2.222845000501370155e-02 8.156329644751988961e-02 1.579852081888035997e-01 2.456411203800913136e-04 -2.276665229942056307e-02 -2.180341322624211597e-02 1.578811343525994212e-02 1.047987419410280896e-01 -1.151216763371126994e+00 -7.585926021072676717e-02 -2.407771256636520307e-01 3.049277170393298597e-01 2.099399572199307784e-01 -1.576669163763750325e-01 -1.076810235802887261e+00 1.629697972014654272e-01 1.871306468041819215e+00 8.253872258053720490e-01 -8.184080680095994209e-01 -2.064581103728594158e+00 2.755817069634411975e-01 4.211493350396937618e-01 -1.101432955731673990e+00 -6.444300070875867981e-01 0.000000000000000000e+00 0.000000000000000000e+00 0.000000000000000000e+00 -2.422776709858112418e-15 1.224084009551118060e-15 0.000000000000000000e+00 1.433742553731767882e-15 -2.647608896160606721e-15 0.000000000000000000e+00 3.260766785134575153e-16 2.471676446286573575e-15 1.081582586820446465e-15 0.000000000000000000e+00 0.000000000000000000e+00 0.000000000000000000e+00 0.000000000000000000e+00 2.171423095485471238e-15 6.833652851048187489e-15 0.000000000000000000e+00 1.405482499617764209e-15 2.777436925949838017e-15 3.260766785134575153e-16 2.471676446286573575e-15 1.081582586820446465e-15 0.000000000000000000e+00 2.277213358776623825e-15 3.884833265980815083e-15 0.000000000000000000e+00 2.140269135593285055e-15 -3.344400166135278267e-16 0.000000000000000000e+00 1.151552167674303501e-15 5.109588391610788256e-15 3.260766785134575153e-16 2.471676446286573575e-15 1.081582586820446465e-15 0.000000000000000000e+00 0.000000000000000000e+00 0.000000000000000000e+00 0.000000000000000000e+00 3.484912208965190071e-15 3.568759373415298493e-15 0.000000000000000000e+00 2.998329312048237579e-15 2.072122254338933597e-15 3.260766785134575153e-16 2.471676446286573575e-15 1.081582586820446465e-15 0.000000000000000000e+00 0.000000000000000000e+00 0.000000000000000000e+00 0.000000000000000000e+00 2.958010717504345231e-16 5.671912482967685109e-15 0.000000000000000000e+00 6.946036463109050124e-15 3.507389812665365774e-15 -7.001789430300756067e-02 -2.401451919802837787e-01 -1.050677702070160091e+00 -3.543612014811847732e-01 -1.626355985225243495e-01 6.185028419712752523e-01 1.539742227486631698e+00 -2.622770954870727866e-01 7.203270213919836795e-01 3.998453332317922770e-01 -1.308008759307788926e+00 1.044341908604818236e+00 0.000000000000000000e+00 0.000000000000000000e+00 0.000000000000000000e+00 1.670638789939760054e-16 -1.377925596358248768e-15 0.000000000000000000e+00 -1.251214740605274343e-16 1.105282369594852530e-15 0.000000000000000000e+00 -3.936258909236897561e-17 2.785708467330545123e-15 3.843224902065126389e-16 0.000000000000000000e+00 0.000000000000000000e+00 0.000000000000000000e+00 0.000000000000000000e+00 -6.450249693989241494e-16 -1.374450841410708445e-15 0.000000000000000000e+00 -9.538904747063269231e-16 -1.212016489096465700e-15 -3.936258909236897561e-17 2.785708467330545123e-15 3.843224902065126389e-16 0.000000000000000000e+00 -5.181387385282270452e-16 1.753462433912133058e-15 0.000000000000000000e+00 -1.795787232705710907e-15 -2.382454519101354372e-15 0.000000000000000000e+00 -3.074886380285691171e-17 -1.676748302662145814e-15 -3.936258909236897561e-17 2.785708467330545123e-15 3.843224902065126389e-16 0.000000000000000000e+00 0.000000000000000000e+00 0.000000000000000000e+00 0.000000000000000000e+00 -6.292653222071462374e-15 -2.015768092203655688e-15 0.000000000000000000e+00 -5.490225950918062727e-16 -3.491026095474154474e-15 -3.936258909236897561e-17 2.785708467330545123e-15 3.843224902065126389e-16 0.000000000000000000e+00 0.000000000000000000e+00 0.000000000000000000e+00 0.000000000000000000e+00 5.798009602860565631e-15 -2.777986461303919876e-15 0.000000000000000000e+00 5.480958255666269694e-15 -3.715999688672695469e-15
4.500000000000000000e+02 0.000000000000000000e+00 0.000000000000000000e+00 0.000000000000000000e+00 0.000000000000000000e+00 0.000000000000000000e+00 5.488580712189650157e-02 -5.877711206819711404e-03 -9.259021808634970707e-04 1.982246661731902893e-01 -2.027099317150737601e-01 7.330792529282993408e-01 3.466904328468792262e-01 1.310819615969746055e-01 -5.704204731931431516e-01 -3.014966824078343377e-01 4.023552124960645682e-02 -7.665653566695204701e-02 -1.413121585632881247e-02 1.186808122036691060e-01 -4.263702785468278522e-01 -4.246338887987866628e-01 -1.657778330536381906e-01 8.961696481036297568e-01 4.873028954511773314e-01 2.175931180724298974e-01 -1.986678497387900366e-01 -4.866054279984789038e-02 5.902661013384599004e-02 3.953470728657325073e-01 -1.203040603945306972e-02 -5.306963776475046024e-02 1.133747564546204178e-01 -1.920275116517793784e-02 4.328113885963577601e-02 1.571986643606664846e-01 5.169235220241892755e-03 -2.817844676961943698e-02 -1.659427756621527361e-02 3.445691720751369036e-02 1.130467695542284046e-01 -7.540093577909080524e-01 2.515462063167224482e-02 -1.400478764880517257e-01 9.059619369082982931e-02 2.518670318484183546e-01 -3.490497293085508684e-02 -9.709066456959841718e-01 1.767892441197984887e-01 1.489356536717193702e+00 8.107528009372875211e-01 -8.641455509953847036e-01 -1.885043838578221997e+00 1.859642118492635943e-01 3.696532642797371593e-01 -1.045023209069840808e+00 -6.110108147153625602e-01 0.000000000000000000e+00 0.000000000000000000e+00 0.000000000000000000e+00 -1.845660434252481341e-15 7.293800339373404875e-16 0.000000000000000000e+00 1.619897947815235453e-15 -2.632154282106932307e-15 0.000000000000000000e+00 8.136760783319752664e-16 3.162519079346026550e-15 5.080251513499441201e-17 0.000000000000000000e+00 0.000000000000000000e+00 0.000000000000000000e+00 0.000000000000000000e+00 2.414301041088940453e-15 3.933158819416016935e-15 0.000000000000000000e+00 1.629600420810356790e-15 7.517154658652849051e-16 8.136760783319752664e-16 3.162519079346026550e-15 5.080251513499441201e-17 0.000000000000000000e+00 1.790431212874361008e-15 4.280303429462687045e-15 0.000000000000000000e+00 2.302430254330560977e-15 -7.657168131420411981e-16 0.000000000000000000e+00 3.486086675429044702e-16 3.498623562252159813e-15 8.136760783319752664e-16 3.162519079346026550e-15 5.080251513499441201e-17 0.000000000000000000e+00 0.000000000000000000e+00 0.000000000000000000e+00 0.000000000000000000e+00 3.024108945799790514e-15 2.017728585098867947e-15 0.000000000000000000e+00 2.723613612530007319e-15 2.803340932007591190e-15 8.136760783319752664e-16 3.162519079346026550e-15 5.080251513499441201e-17 0.000000000000000000e+00 0.000000000000000000e+00 0.000000000000000000e+00 0.000000000000000000e+00 -2.137343839535004742e-16 3.953124817163275660e-15 0.000000000000000000e+00 5.196038768372389191e-15 3.301665558992240327e-15 9.366904768674078063e-02 -1.404629250279711694e-01 -8.663504608105533356e-01 -1.908082775122805774e-01 -2.340695724130539279e-01 3.066192588144491249e-01 1.300749207748638669e+00 -2.778369383667746995e-01 4.657565550472669291e-01 4.108239029955331190e-01 -1.596126934307751100e+00 1.232489770658627970e+00 0.000000000000000000e+00 0.000000000000000000e+00 0.000000000000000000e+00 2.498698550350491709e-16 -1.212564634002424524e-15 0.000000000000000000e+00 -8.511021965864306025e-16 2.949275868564653015e-16 0.000000000000000000e+00 -1.333735213000676141e-15 1.252318870126813346e-15 -4.898243963167488117e-16 0.000000000000000000e+00 0.000000000000000000e+00 0.000000000000000000e+00 0.000000000000000000e+00 -1.966780956890651304e-15 -1.688606862404605430e-15 0.000000000000000000e+00 4.303793728856776895e-17 1.645456408079787892e-15 -1.333735213000676141e-15 1.252318870126813346e-15 -4.898243963167488117e-16 0.000000000000000000e+00 -1.555008931211879474e-15 3.188647528403538903e-16 0.000000000000000000e+00 -1.985256337095170494e-15 -8.204444490853486792e-16 0.000000000000000000e+00 -4.692409500510111334e-16 -3.033260041094271364e-16 -1.333735213000676141e-15 1.252318870126813346e-15 -4.898243963167488117e-16 0.000000000000000000e+00 0.000000000000000000e+00 0.000000000000000000e+00 0.000000000000000000e+00 -4.988000974344769389e-15 -9.929720283631129021e-16 0.000000000000000000e+00 -6.311975218664398079e-16 -1.590461586583170792e-15 -1.333735213000676141e-15 1.252318870126813346e-15 -4.898243963167488117e-16 0.000000000000000000e+00 0.000000000000000000e+00 0.000000000000000000e+00 0.000000000000000000e+00 3.490300180617099364e-15 -2.351613706707041444e-15 0.000000000000000000e+00 3.802170514960505599e-15 -3.743845854686743375e-16
